<svg width="15" height="12" viewBox="0 0 15 12" fill="none" xmlns="http://www.w3.org/2000/svg">
<path d="M14.3888 3.9625C14.5005 3.86563 14.6667 3.95625 14.6667 4.10938V10.5C14.6667 11.3281 14.0508 12 13.2917 12H1.375C0.615885 12 0 11.3281 0 10.5V4.1125C0 3.95625 0.163281 3.86875 0.277865 3.96562C0.919531 4.50937 1.77031 5.2 4.69219 7.51562C5.29661 7.99687 6.31641 9.00938 7.33333 9.00313C8.35599 9.0125 9.39583 7.97813 9.97734 7.51562C12.8992 5.2 13.7471 4.50625 14.3888 3.9625ZM7.33333 8C7.99792 8.0125 8.95469 7.0875 9.43594 6.70625C13.2372 3.69688 13.5266 3.43437 14.4031 2.68437C14.5693 2.54375 14.6667 2.325 14.6667 2.09375V1.5C14.6667 0.671875 14.0508 0 13.2917 0H1.375C0.615885 0 0 0.671875 0 1.5V2.09375C0 2.325 0.0973958 2.54062 0.263542 2.68437C1.1401 3.43125 1.42943 3.69688 5.23073 6.70625C5.71198 7.0875 6.66875 8.0125 7.33333 8Z" fill="#B90D5D"/>
</svg>
