<svg width="22" height="22" viewBox="0 0 22 22" fill="none" xmlns="http://www.w3.org/2000/svg">
<path d="M20.2929 21.7071C20.6834 22.0976 21.3166 22.0976 21.7071 21.7071C22.0976 21.3166 22.0976 20.6834 21.7071 20.2929L20.2929 21.7071ZM16.4706 9.23529C16.4706 13.2312 13.2312 16.4706 9.23529 16.4706V18.4706C14.3358 18.4706 18.4706 14.3358 18.4706 9.23529H16.4706ZM9.23529 16.4706C5.23935 16.4706 2 13.2312 2 9.23529H0C0 14.3358 4.13478 18.4706 9.23529 18.4706V16.4706ZM2 9.23529C2 5.23935 5.23935 2 9.23529 2V0C4.13478 0 0 4.13478 0 9.23529H2ZM9.23529 2C13.2312 2 16.4706 5.23935 16.4706 9.23529H18.4706C18.4706 4.13478 14.3358 0 9.23529 0V2ZM14.4105 15.8248L20.2929 21.7071L21.7071 20.2929L15.8248 14.4105L14.4105 15.8248Z" fill="black"/>
</svg>
